<svg width="191" height="123" viewBox="0 0 191 123" fill="none" xmlns="http://www.w3.org/2000/svg">
<g opacity="0.6">
<path d="M81.9953 108.981C81.9953 108.981 69.5388 44.5262 46.785 46.9041C24.0312 49.2819 67.651 89.1525 70.4996 107.975L81.9953 108.981Z" fill="#4763A2"/>
</g>
<path d="M64.92 90.7813C64.92 90.7813 32.7565 39.6026 16.3126 49.0939C-0.130107 58.5852 47.0423 78.4801 55.8347 93.6843L64.9189 90.7824L64.92 90.7813Z" fill="#7183C3"/>
<path d="M59.8526 92.4512C53.9718 81.8412 43.9697 72.4183 36.6156 66.3811C28.642 59.8366 21.9795 55.7541 21.9131 55.7137L22.1665 55.3008C22.233 55.3412 28.9247 59.4416 36.9242 66.0074C44.311 72.0716 54.3593 81.5404 60.2772 92.2167L59.8515 92.4512H59.8526Z" fill="#F4F4F4"/>
<path d="M14.2919 100.913C22.6326 102.705 21.165 115.286 30.6974 112.945C40.2299 110.599 39.4448 109.994 43.9965 114.103C43.9965 114.103 45.7536 118.078 49.5348 118.735C64.4536 121.332 85.0121 99.3411 69.5065 87.2419C68.3869 86.3677 66.7514 86.0333 64.9402 85.7516C55.1138 84.2322 52.0207 88.7265 44.3457 77.1996C36.6672 65.6693 26.0467 82.2157 19.454 81.6389C12.8614 81.0621 7.06056 79.0983 1.87813 86.0557C-3.30542 93.0199 5.95109 99.1267 14.2919 100.913Z" fill="#4763A2"/>
<g opacity="0.5">
<path d="M64.6485 103.232L64.965 102.768C64.76 102.63 43.9875 89.0011 0.681935 88.0293L0.665039 88.5881C43.8084 89.5566 64.4446 103.094 64.6485 103.231V103.232Z" fill="#E3FFD2"/>
<path d="M37.8036 86.6148C43.5481 81.4944 44.5788 77.4321 44.6193 77.2616L44.073 77.1348C44.0629 77.1752 43.0277 81.2094 37.4297 86.1996L37.8036 86.6148Z" fill="#E3FFD2"/>
<path d="M36.7769 92.6488C38.3989 89.8333 38.2727 85.7766 36.4108 80.9199C35.0164 77.2818 33.1196 74.4304 33.1004 74.4023L32.6318 74.7143C32.7062 74.8254 40.0197 85.8989 36.2892 92.3739L36.7769 92.6488Z" fill="#FF4929"/>
<path d="M25.3836 91.6859C26.0673 91.1192 26.4368 90.7511 26.4537 90.7343L26.0538 90.3438C25.9761 90.4223 18.1805 98.1697 6.74781 97.8365L6.72754 98.3953C15.9401 98.6635 22.8369 93.7978 25.3825 91.687L25.3836 91.6859Z" fill="#E3FFD2"/>
<path d="M19.6861 104.621C22.314 101.723 23.0765 98.8265 23.2534 96.9087C23.446 94.8203 23.0157 93.4334 22.9977 93.375L22.4615 93.5467C22.4784 93.6006 24.0812 98.9421 19.2705 104.25L19.6873 104.622L19.6861 104.621Z" fill="#E3FFD2"/>
</g>
<path d="M149.478 35.7037C150.984 37.3084 151.944 37.3095 152.576 36.7215C153.207 36.1335 153.271 35.1797 151.765 33.575C149.022 30.6517 146.552 30.3027 146.552 30.3027C146.552 30.3027 146.695 32.7378 149.478 35.7037Z" fill="#4763A2"/>
<path d="M146.393 46.8577C147.296 48.8618 148.204 49.1716 148.992 48.8192C149.781 48.4668 150.151 47.5837 149.248 45.5806C147.602 41.9302 145.379 40.8047 145.379 40.8047C145.379 40.8047 144.723 43.1545 146.393 46.8588V46.8577Z" fill="#4763A2"/>
<path d="M135.777 85.1491L136.186 85.2321C136.199 85.1693 137.531 78.8549 142.299 70.4364C146.699 62.6687 155.008 51.4706 169.607 42.2341L169.383 41.8828C154.704 51.171 146.35 62.4342 141.926 70.249C137.13 78.7202 135.79 85.0862 135.776 85.1502L135.777 85.1491Z" fill="#4763A2"/>
<path d="M153.978 54.44L154.379 54.3244C150.171 39.817 159.299 26.4094 159.392 26.2758L159.048 26.0391C158.954 26.1748 149.714 39.7396 153.978 54.4389V54.44Z" fill="#4763A2"/>
<path d="M161.931 49.7523C165.996 50.953 169.67 49.8331 169.713 49.8196L169.588 49.4235C169.54 49.4381 164.833 50.8677 160.261 48.666L160.08 49.0408C160.698 49.3382 161.32 49.5727 161.932 49.7534L161.931 49.7523Z" fill="#4763A2"/>
<path d="M170.537 40.0919C167.854 41.369 167.358 42.3789 167.73 43.1554C168.103 43.932 169.204 44.1822 171.887 42.9052C176.775 40.579 178.462 38.0473 178.462 38.0473C178.462 38.0473 175.497 37.7309 170.537 40.0919Z" fill="#4763A2"/>
<path d="M169.023 48.2127C166.078 48.6245 165.299 49.4381 165.42 50.2909C165.54 51.1438 166.514 51.7127 169.458 51.3009C174.823 50.5513 177.198 48.6447 177.198 48.6447C177.198 48.6447 174.466 47.4519 169.023 48.2127Z" fill="#4763A2"/>
<path d="M159.729 42.1929C158.636 44.1017 158.92 45.0151 159.67 45.4416C160.421 45.868 161.354 45.6469 162.447 43.7381C164.437 40.2617 164.039 37.8086 164.039 37.8086C164.039 37.8086 161.747 38.6659 159.728 42.1929H159.729Z" fill="#4763A2"/>
<path d="M158.687 24.1754C157.2 26.7418 157.365 27.8539 158.114 28.2837C158.863 28.7146 159.911 28.2994 161.398 25.7341C164.106 21.0592 164.06 18.0215 164.06 18.0215C164.06 18.0215 161.435 19.4332 158.687 24.1754Z" fill="#4763A2"/>
<path d="M133.146 97.2243C133.146 97.2243 154.908 53.2275 166.668 59.5587C178.43 65.89 145.53 85.8219 139.603 98.8301L133.146 97.2254V97.2243Z" fill="#4763A2"/>
<path d="M139.604 91.945C139.604 91.945 169.342 54.4265 181.462 63.3073C193.581 72.1881 154.737 83.7981 146.504 95.0085L139.604 91.945Z" fill="#7183C3"/>
<path d="M143.446 93.6954C148.991 85.8503 157.678 79.2924 163.988 75.1718C170.828 70.7056 176.425 68.064 176.48 68.0382L176.316 67.6914C176.259 67.7172 170.639 70.37 163.776 74.852C157.438 78.9905 148.712 85.581 143.132 93.4754L143.446 93.6965V93.6954Z" fill="#F4F4F4"/>
<path d="M178.682 104.255C172.038 105.38 172.686 115.353 165.27 113.178C158.998 111.335 158.491 110.728 156.213 112.451C155.433 113.041 154.751 113.749 154.167 114.534C153.467 115.473 152.135 116.844 150.194 117.096C138.334 118.63 123.022 100.576 135.727 91.5685C136.645 90.9176 137.947 90.71 139.385 90.5507C147.189 89.6911 149.445 93.3426 155.957 84.5156C162.472 75.6864 170.173 89.1031 175.391 88.8753C180.608 88.6475 185.258 87.2986 189.062 92.9656C192.865 98.637 185.325 103.134 178.681 104.256L178.682 104.255Z" fill="#4763A2"/>
<path d="M138.912 104.348L138.681 103.971C138.847 103.87 155.764 93.8369 189.926 94.563L189.917 95.0051C155.884 94.2813 139.077 104.248 138.912 104.348Z" fill="#F4F4F4"/>
<path d="M160.733 92.1662C156.414 87.9301 155.765 84.6904 155.74 84.5546L156.176 84.4727C156.182 84.5052 156.835 87.7225 161.045 91.8509L160.735 92.1651L160.733 92.1662Z" fill="#F4F4F4"/>
<path d="M161.299 96.9611C160.135 94.6843 160.398 91.4894 162.061 87.7234C163.306 84.9023 164.916 82.7186 164.932 82.6973L165.288 82.9598C165.225 83.0451 159.015 91.5265 161.693 96.7614L161.298 96.9611H161.299Z" fill="#F4F4F4"/>
<path d="M170.315 96.5935C169.799 96.1233 169.523 95.8192 169.511 95.8057L169.841 95.5117C169.898 95.5757 175.728 101.955 184.751 102.086L184.744 102.528C177.474 102.422 172.237 98.3463 170.315 96.5935Z" fill="#F4F4F4"/>
<path d="M174.282 106.994C172.328 104.617 171.844 102.307 171.782 100.788C171.715 99.1342 172.109 98.0547 172.126 98.0098L172.541 98.1635C172.526 98.205 171.048 102.363 174.624 106.714L174.28 106.994H174.282Z" fill="#F4F4F4"/>
<path d="M40.1748 54.498C40.3381 54.5946 43.1169 55.8323 43.7139 60.395C44.3108 64.9578 40.5386 60.8428 40.5386 60.8428L40.1748 54.498Z" fill="#FFAD97"/>
<path d="M35.6991 115.652C35.6991 115.652 35.7385 117.239 36.8165 117.687C37.8944 118.135 41.0167 118.539 39.8498 119.559C39.1807 120.144 36.0246 119.766 35.1348 119.766C34.2438 119.766 33.4081 120.153 32.7458 119.559C32.017 118.906 32.7458 115.652 32.7458 115.652C32.7458 115.652 33.514 116.052 34.2055 116.034C35.2013 116.008 35.6991 115.652 35.6991 115.652Z" fill="#090034"/>
<path d="M23.3231 115.652C23.3231 115.652 23.3626 117.239 24.4405 117.687C25.5184 118.135 28.6407 118.539 27.4738 119.559C26.8047 120.144 23.6487 119.766 22.7588 119.766C21.8679 119.766 21.0321 120.153 20.3698 119.559C19.641 118.906 20.3698 115.652 20.3698 115.652C20.3698 115.652 21.138 116.052 21.8296 116.034C22.8253 116.008 23.3231 115.652 23.3231 115.652Z" fill="#090034"/>
<path d="M43.7094 72.1543C43.7094 72.1543 43.9088 78.7964 41.7811 91.5375C40.2447 100.736 38.4312 110.005 37.5414 114.449C37.2226 116.038 35.8811 117.2 34.2907 117.264L33.4358 117.298C31.7158 117.366 30.3203 115.895 30.4464 114.146L32.6057 84.0829L33.1373 74.1877L43.7083 72.1543H43.7094Z" fill="#FF8321"/>
<path d="M24.2448 77.9978C24.3428 78.8058 28.9305 78.7081 34.5488 78C40.166 77.292 44.5386 76.0789 44.4406 75.2709C44.3426 74.463 39.8112 74.3642 34.1929 75.0723C28.5757 75.7804 24.1468 77.1898 24.2448 77.9978Z" fill="#090034"/>
<path d="M37.2593 76.8958L25.2668 115.277C24.7645 116.884 23.3126 117.985 21.6591 118.013L20.9382 118.025C19.2362 118.055 17.9353 116.487 18.245 114.78L24.805 78.7159C24.9008 78.2873 25.2184 77.9461 25.6329 77.8272C27.8823 77.1808 37.4801 75.309 37.2593 76.8958Z" fill="#FF8321"/>
<path d="M26.1209 55.9016C26.1209 55.9016 27.717 51.4286 33.4007 51.6317C39.0855 51.8348 43.3769 59.277 44.4402 75.2713C44.4402 75.2713 35.1319 73.2379 24.2275 77.9813C24.2275 77.9813 23.6226 62.4191 26.1198 55.9004L26.1209 55.9016Z" fill="#004657"/>
<path d="M22.1289 55.6311L26.1557 58.1987C26.1557 58.1987 36.507 59.2299 39.2554 58.7339C42.0037 58.2368 42.4306 56.2248 42.4306 56.2248C42.4306 56.2248 39.8163 52.6529 34.8422 51.7653C34.3748 51.6811 33.904 51.6676 33.4016 51.6317C32.558 51.5723 31.7143 51.5981 30.8876 51.6867C25.9732 52.2153 22.13 55.6311 22.13 55.6311H22.1289Z" fill="#004657"/>
<path d="M31.8995 94.0541L34.4789 86.2427C35.059 84.4865 36.2518 83.0198 37.8377 82.1153L37.7375 81.9414C36.1087 82.8717 34.8832 84.3765 34.2874 86.181L31.708 93.9924L31.8995 94.0552V94.0541Z" fill="#090034"/>
<path d="M37.298 50.6354C37.3296 50.6275 38.0617 50.4502 38.2802 49.9273C38.3951 49.6512 38.3433 49.3325 38.1248 48.9791C38.0279 48.822 37.9378 48.6794 37.8567 48.5493C37.2879 47.6448 37.0953 47.3396 37.2451 46.6326L37.1809 46.6191C37.0266 47.353 37.2372 47.6886 37.8015 48.5841C37.8837 48.7142 37.9727 48.8556 38.0696 49.0127C38.2757 49.346 38.3264 49.6456 38.2205 49.9004C38.0155 50.3919 37.2913 50.5692 37.2845 50.5703L37.3003 50.6343L37.298 50.6354Z" fill="#090034"/>
<path d="M37.2124 46.627C37.2124 46.627 36.9601 47.7626 37.7159 48.9521C38.4717 50.1405 37.6494 51.0101 36.6255 50.5523C35.6028 50.0956 35.2119 51.395 33.9042 50.6769C32.5965 49.9587 37.2124 46.6281 37.2124 46.6281V46.627Z" fill="#090034"/>
<path d="M31.1674 51.6466C31.7328 51.586 32.2239 51.2325 32.448 50.7129L33.152 49.0835L33.3559 48.61L34.5577 45.8281L34.3494 48.711L34.2243 50.4414L34.1883 50.9351C34.159 51.338 34.4417 51.6937 34.8405 51.7655H34.8472C35.0612 52.1134 35.3563 52.8181 34.4744 53.0975C33.437 53.4263 31.7598 52.6127 31.1572 51.6488C31.1606 51.6488 31.1629 51.6488 31.1662 51.6488L31.1674 51.6466Z" fill="#FFAD97"/>
<path d="M33.1511 49.0361C33.1511 49.0518 33.1522 49.0675 33.1544 49.0843C33.2231 50.0135 34.2211 50.4478 34.2211 50.4478L34.2267 50.4422L34.3518 48.7118C34.0465 48.6007 33.6129 48.4862 33.3583 48.6108C33.2254 48.6759 33.142 48.806 33.1511 49.0361Z" fill="#090034"/>
<path d="M34.6916 49.6309C36.1926 49.6309 37.4095 48.1347 37.4095 46.2891C37.4095 44.4434 36.1926 42.9473 34.6916 42.9473C33.1905 42.9473 31.9736 44.4434 31.9736 46.2891C31.9736 48.1347 33.1905 49.6309 34.6916 49.6309Z" fill="#FFAD97"/>
<path d="M32.3369 46.7949C32.6444 47.0878 33.0758 47.1181 33.2988 46.8623C33.5219 46.6064 33.4531 46.162 33.1456 45.868C32.8381 45.5751 32.4067 45.5448 32.1837 45.8007C31.9607 46.0565 32.0294 46.502 32.3369 46.7949Z" fill="#FFAD97"/>
<path d="M36.1536 48.4525C36.1536 48.4525 35.2255 48.4739 34.2963 48.1484C34.2963 48.1484 34.2197 49.0608 35.2244 49.1214C35.809 49.1573 36.1525 48.4525 36.1525 48.4525H36.1536Z" fill="#E9633E"/>
<path d="M36.1543 48.4514C36.1543 48.4514 35.9301 48.6377 35.4052 48.6355C34.8815 48.6332 34.2969 48.1484 34.2969 48.1484C34.2969 48.1484 35.4154 48.4548 36.1543 48.4525V48.4514Z" fill="white"/>
<path d="M34.9541 46.3233C34.9721 46.3188 34.9879 46.3053 34.9958 46.2862C35.0082 46.2548 34.9935 46.2189 34.962 46.2065C34.9429 46.1987 34.5272 45.9855 34.1612 46.3839C34.1386 46.4085 34.1386 46.4478 34.1634 46.4714C34.1882 46.4949 34.222 46.4882 34.2513 46.4691C34.5351 46.2795 34.9001 46.3143 34.9158 46.321C34.9282 46.3266 34.9429 46.3266 34.9552 46.3233H34.9541Z" fill="#090034"/>
<path d="M34.464 47.0006C34.4595 47.1477 34.5418 47.27 34.6499 47.2733C34.7569 47.2767 34.847 47.16 34.8526 47.013C34.8571 46.866 34.7749 46.7437 34.6679 46.7403C34.5609 46.7369 34.4708 46.8536 34.4652 47.0006H34.464Z" fill="#090034"/>
<path d="M37.1605 46.6442C37.1797 46.6464 37.1988 46.6408 37.2124 46.6262C37.236 46.6015 37.236 46.5634 37.2124 46.5387C37.1977 46.5252 36.8947 46.1695 36.4048 46.3995C36.3743 46.4141 36.3597 46.45 36.3732 46.4814C36.3867 46.5129 36.4216 46.5196 36.4554 46.5129C36.7911 46.4444 37.1144 46.6161 37.1268 46.6284C37.1369 46.6385 37.1493 46.6441 37.1617 46.6453L37.1605 46.6442Z" fill="#090034"/>
<path d="M36.4493 47.0867C36.3885 47.2202 36.4189 47.365 36.5169 47.4088C36.6149 47.4525 36.7433 47.3796 36.803 47.2449C36.8638 47.1114 36.8334 46.9666 36.7354 46.9229C36.6374 46.8791 36.509 46.952 36.4493 47.0867Z" fill="#090034"/>
<path d="M35.8442 43.5546C35.8442 43.5546 35.7857 44.7138 34.3327 44.9113C32.8796 45.1088 31.8772 45.7215 32.072 46.764C32.2669 47.8064 34.6097 49.9711 32.8875 50.8082C31.1664 51.6465 31.5325 50.0833 29.6661 50.4458C27.7997 50.8082 27.4629 48.3249 28.7481 46.884C30.0333 45.4432 29.5129 41.63 34.3315 41.7984C39.1513 41.9678 37.3851 45.7978 37.3851 45.7978C37.3851 45.7978 35.8409 44.8327 35.8431 43.5523L35.8442 43.5546Z" fill="#090034"/>
<path d="M32.3922 51.024C32.7549 50.8781 32.978 50.6604 33.0545 50.3788C33.2663 49.6011 32.3573 48.4262 31.5542 47.3904C31.3436 47.1178 31.1431 46.8597 30.9674 46.6139C30.4763 45.9316 30.4346 45.1495 30.8547 44.5233C31.3154 43.8354 32.1929 43.5459 33.1447 43.7647C34.0931 43.9836 34.7452 43.7861 35.1259 43.5818C35.5393 43.3596 35.724 43.0892 35.7319 43.078L35.6993 43.0566C35.6993 43.0566 35.51 43.3316 35.1045 43.5493C34.7306 43.7501 34.0886 43.9443 33.1537 43.7277C32.1861 43.5044 31.2929 43.8006 30.8232 44.502C30.4008 45.1338 30.4436 45.9518 30.937 46.6375C31.1138 46.8844 31.3143 47.1413 31.5249 47.4151C32.3213 48.4442 33.2246 49.6101 33.0185 50.3698C32.9442 50.6436 32.7347 50.8467 32.3787 50.9892L32.3934 51.0252L32.3922 51.024Z" fill="white"/>
<path d="M36.9717 48.8332C36.8275 48.8332 36.6867 48.7928 36.5561 48.7109C35.9715 48.3484 35.7507 47.2543 36.065 46.2746C36.2576 45.6732 36.6169 45.2243 37.0247 45.075C37.2691 44.9864 37.5135 45.0066 37.7309 45.1446C38.3155 45.5048 38.5362 46.5978 38.222 47.5797C38.0294 48.1823 37.6701 48.6323 37.2623 48.7816C37.1655 48.8163 37.0686 48.8343 36.9717 48.8343V48.8332ZM36.1799 46.3128C35.8814 47.2431 36.0796 48.2743 36.6203 48.6099C36.8028 48.7232 37.0111 48.74 37.2195 48.6671C37.5935 48.5291 37.9246 48.1083 38.106 47.5416C38.4045 46.6102 38.2073 45.5789 37.6667 45.2445C37.4831 45.1311 37.277 45.1121 37.0663 45.1873C36.6924 45.3253 36.3612 45.745 36.1799 46.3128Z" fill="#62B0BB"/>
<g opacity="0.3">
<path d="M32.9196 45.6371C32.7011 46.5909 33.0503 47.6155 33.698 47.9252C34.3456 48.2349 35.0485 47.712 35.2659 46.7581C35.4844 45.8043 35.1352 44.7798 34.4875 44.47C33.8399 44.1603 33.137 44.6833 32.9196 45.6371Z" fill="white"/>
</g>
<g opacity="0.3">
<path d="M36.0395 46.357C35.821 47.3154 36.1116 48.3545 36.6894 48.6788C37.2672 49.002 37.9127 48.488 38.1312 47.5297C38.3497 46.5714 38.0591 45.5322 37.4813 45.2079C36.9034 44.8848 36.258 45.3987 36.0395 46.357Z" fill="white"/>
</g>
<path d="M34.1562 48.0442C34.0097 48.0442 33.8644 48.0116 33.7225 47.9432C33.0073 47.611 32.6198 46.5102 32.8586 45.489C32.996 44.8965 33.3137 44.4409 33.7315 44.2389C34.0221 44.0997 34.3274 44.0975 34.6146 44.2322C35.3287 44.5666 35.7162 45.6674 35.4785 46.6863C35.34 47.28 35.0212 47.7367 34.6033 47.9387C34.4569 48.0082 34.306 48.0453 34.1562 48.0453V48.0442ZM34.181 44.2512C34.0469 44.2512 33.914 44.2827 33.7845 44.3455C33.406 44.5306 33.103 44.9672 32.9757 45.5159C32.7505 46.4821 33.1075 47.5223 33.7732 47.8343C34.0255 47.9488 34.2947 47.9476 34.5493 47.8287C34.9289 47.6458 35.2319 47.207 35.3603 46.656C35.5844 45.6898 35.2274 44.6496 34.5628 44.3376C34.4378 44.2804 34.3094 44.2501 34.181 44.2501V44.2512Z" fill="#62B0BB"/>
<path d="M36.1655 46.7111C36.1396 46.7111 36.1148 46.7021 36.0934 46.6853C36.081 46.6752 35.7882 46.4462 35.2836 46.5427C35.2239 46.5517 35.1631 46.5147 35.1507 46.4541C35.1383 46.3935 35.1788 46.334 35.2397 46.3239C35.8501 46.1971 36.2218 46.5001 36.2376 46.5124C36.2849 46.5528 36.2917 46.6235 36.2511 46.6707C36.2297 46.6987 36.1971 46.7122 36.1644 46.7122L36.1655 46.7111Z" fill="#62B0BB"/>
<path d="M22.072 55.7202C21.9323 56.1242 22.9855 56.8806 24.4239 57.4091C25.8622 57.9376 27.1429 58.0386 27.2826 57.6347C27.4223 57.2307 26.3691 56.4743 24.9307 55.9458C23.4924 55.4173 22.2117 55.3163 22.072 55.7202Z" fill="#090034"/>
<path d="M31.9491 69.6939L31.9975 66.7617C32.0043 66.3611 31.6945 66.0256 31.2936 65.9964C29.2537 65.8505 27.8255 65.221 27.0438 64.1179C25.9579 62.5873 26.0717 60.2105 26.3747 58.562C26.529 57.7182 26.2497 57.1537 25.2269 56.6128C25.2269 56.6128 24.3472 56.1303 23.2614 55.9463C22.8266 55.8722 22.3952 56.0461 22.2826 56.4714C22.1069 57.1369 21.8805 58.1704 21.7712 59.3879C21.5133 62.2787 22.0731 64.7934 23.3898 66.6607C25.005 68.9522 27.6103 70.2191 31.1381 70.4346C31.5718 70.4615 31.9412 70.1248 31.948 69.6928L31.9491 69.6939Z" fill="#FFAD97"/>
<g opacity="0.5">
<path d="M23.5816 65.424C23.2178 64.974 23.1829 64.3995 23.5039 64.1414C23.8249 63.8844 24.3813 64.0404 24.7451 64.4904C25.1089 64.9403 25.1439 65.5149 24.8228 65.773C24.7181 65.8572 24.5886 65.8964 24.4478 65.8964C24.1583 65.8964 23.826 65.727 23.5816 65.424ZM23.6289 64.294C23.3969 64.4803 23.4464 64.9403 23.7359 65.2994C24.0265 65.6585 24.468 65.8044 24.6989 65.6181C24.931 65.4319 24.8814 64.9718 24.5919 64.6127C24.3881 64.3602 24.1087 64.2121 23.8801 64.2121C23.7843 64.2121 23.6976 64.2379 23.6289 64.2929V64.294Z" fill="#F47C53"/>
</g>
<path d="M28.7617 77.1212C28.7617 77.1212 39.9736 74.9879 43.6084 75.9945L41.8648 78.5676L35.3848 78.9334L28.7617 77.1223V77.1212Z" fill="#FF8321"/>
<path d="M32.5883 60.4046L33.4016 68.7973C33.4331 69.1261 33.6955 69.3853 34.0256 69.4134L40.2983 69.9588C40.3625 69.9644 40.4267 69.961 40.4887 69.9487L41.7333 69.7074C41.8651 69.6816 41.9856 69.6187 42.0825 69.5256L44.9885 66.7022C45.1361 66.5586 45.2115 66.3566 45.1935 66.1524L44.6191 59.6124C44.5729 59.0816 43.9635 58.8055 43.531 59.1175L41.0124 60.9388C40.9437 60.9882 40.866 61.0252 40.7838 61.0465L39.5256 61.3776C39.404 61.4101 39.2745 61.4079 39.1539 61.3719L33.468 59.682C33.0006 59.5428 32.541 59.9199 32.5872 60.4035L32.5883 60.4046Z" fill="#62B0BB"/>
<path d="M39.3408 61.4266L40.9099 61.0137L41.9371 69.6678C41.9371 69.6678 41.5519 70.2648 40.3962 69.9663L39.3408 61.4266Z" fill="#090034"/>
<path d="M30.543 65.8127C30.543 65.8127 31.2593 63.6525 32.486 63.124C33.7126 62.5954 35.6815 62.8434 34.991 63.3327C34.3005 63.8219 33.2451 64.2035 33.2451 64.2035C33.2451 64.2035 35.5384 63.4943 35.4731 64.1002C35.4078 64.7062 33.4073 65.3043 33.4073 65.3043C33.4073 65.3043 36.2041 64.6759 35.9563 65.2291C35.7085 65.7824 33.5797 66.2436 33.5797 66.2436C33.5797 66.2436 36.2052 65.7633 35.9022 66.3984C35.5992 67.0336 33.7295 66.7811 33.6641 67.3882C33.5988 67.9942 33.1314 70.3799 31.4182 70.4046L30.5452 65.8149L30.543 65.8127Z" fill="#FFAD97"/>
<path d="M32.4267 64.7072C32.5934 64.3582 33.2456 64.255 33.2524 64.2539L33.2377 64.1562C33.2084 64.1607 32.527 64.2696 32.3389 64.6646L32.4279 64.7072H32.4267Z" fill="#F47C53"/>
<path d="M32.4158 65.9051C32.7638 65.4416 33.4058 65.3507 33.4126 65.3496L33.3991 65.252C33.3709 65.2553 32.7086 65.3496 32.3369 65.8456L32.4158 65.9039V65.9051Z" fill="#F47C53"/>
<path d="M32.6588 66.7993C32.8041 66.4144 33.579 66.2921 33.5869 66.291L33.5723 66.1934C33.5385 66.199 32.732 66.3258 32.5664 66.7645L32.6588 66.7993Z" fill="#F47C53"/>
<path d="M33.8867 59.8049C33.8867 59.8049 34.3733 59.4671 35.4974 59.6904C36.6215 59.9149 38.2908 60.4097 38.9655 60.4905C39.6402 60.5702 39.897 60.8743 39.897 60.8743C39.897 60.8743 39.6977 60.3581 40.4951 60.0798C41.2937 59.8027 42.7546 58.9722 43.2457 59.3235L40.9096 61.0135L39.3406 61.4264L33.8867 59.806V59.8049Z" fill="#E4ECFF"/>
<path d="M39.8316 60.8862L39.9589 60.866C39.9533 60.8256 39.8733 60.4666 38.9035 60.2702C38.6917 60.2275 38.4 60.149 38.0632 60.0581C36.9019 59.745 35.1459 59.2737 34.2764 59.6429L34.3271 59.7607C35.1549 59.4083 36.885 59.8729 38.0294 60.1815C38.3696 60.2724 38.6625 60.3521 38.8776 60.3959C39.7584 60.5743 39.8316 60.884 39.8328 60.8862H39.8316Z" fill="#E4ECFF"/>
<path d="M45.9542 64.1467C45.9542 64.1467 46.1141 65.4013 45.0497 65.5203C43.6924 65.6718 41.8328 64.461 42.6911 64.3521C43.4525 64.2556 44.5698 64.397 44.5698 64.397C44.5698 64.397 41.7303 63.9952 41.9938 63.3926C42.2585 62.7912 44.696 63.1727 44.696 63.1727C44.696 63.1727 41.9589 62.5028 42.3824 62.0258C42.806 61.5489 45.0215 61.88 45.0215 61.88C45.0215 61.88 42.3171 61.3784 42.8217 60.8375C43.3263 60.2966 44.6825 60.8577 45.3042 60.9564C45.8922 61.0496 46.0364 61.485 45.926 62.0842C45.926 62.0842 46.1423 62.7586 45.9778 63.1278C45.9147 63.2692 46.0307 63.4387 46.0296 63.5509C46.0296 63.7652 45.953 64.1467 45.953 64.1467H45.9542Z" fill="#FFAD97"/>
<path d="M144.107 51.0108L102.526 50.1074L55.4394 52.1071L55.3684 55.9416L100.902 53.0935C105.483 53.1934 109.115 57.6697 109.014 63.0931C108.913 68.5166 105.118 72.8313 100.537 72.7326L55.0744 71.745L55.0215 74.5774L143.633 76.5019C149.58 76.631 154.507 71.0291 154.638 63.9897C154.768 56.9504 150.054 51.1387 144.107 51.0096V51.0108Z" fill="#FFBB01"/>
<path d="M113.057 63.0875C113.187 56.0482 108.473 50.2376 102.526 50.1074L55.4394 52.1071L55.3684 55.9416L100.902 53.0935C105.483 53.1934 109.115 57.6697 109.014 63.0931C108.913 68.5166 105.118 72.8313 100.537 72.7325L55.0744 71.745L55.0215 74.5774L102.052 75.5986C107.998 75.7276 112.926 70.1258 113.057 63.0864V63.0875Z" fill="#FFBB01"/>
<path d="M100.901 53.1094L55.3679 55.9462C59.487 56.5982 60.7846 61.0925 61.385 63.4928C62.6015 68.3585 59.2156 71.2212 55.0762 71.6936V71.7609L100.538 72.7484C105.119 72.8483 108.914 68.5324 109.015 63.109C109.116 57.6856 105.483 53.2092 100.903 53.1094H100.901Z" fill="#E3FFD2"/>
<g opacity="0.3">
<path d="M61.5857 65.7275L61.5801 65.9844L98.2752 66.7821L98.2809 66.5252L61.5857 65.7275Z" fill="#090034"/>
</g>
<g opacity="0.3">
<path d="M89.5481 62.45L61.3789 63.3613L61.3873 63.6182L89.5565 62.7068L89.5481 62.45Z" fill="#090034"/>
</g>
<path d="M81.1857 75.2674L117.054 75.0508L157.637 77.3411L157.655 80.5595L118.421 77.5779C114.47 77.6015 111.286 81.3102 111.31 85.8617C111.335 90.4133 114.559 94.0827 118.51 94.0592L157.727 93.8224L157.741 96.1991L81.3029 96.6604C76.1734 96.6918 71.9889 91.927 71.9562 86.0188C71.9236 80.1106 76.0562 75.2965 81.1857 75.2651V75.2674Z" fill="#273547"/>
<path d="M107.824 85.8045C107.792 79.8963 111.924 75.0822 117.054 75.0508L157.637 77.3411L157.655 80.5595L118.421 77.5779C114.47 77.6015 111.286 81.3102 111.311 85.8617C111.335 90.4133 114.559 94.0827 118.51 94.0592L157.727 93.8224L157.741 96.1991L117.171 96.4438C112.042 96.4752 107.857 91.7105 107.824 85.8023V85.8045Z" fill="#273547"/>
<path d="M118.42 77.5859L157.654 80.5586C154.094 81.0523 152.924 84.806 152.379 86.8113C151.274 90.878 154.161 93.3232 157.726 93.7743V93.8304L118.51 94.0672C114.559 94.0908 111.335 90.4213 111.311 85.8698C111.286 81.3183 114.469 77.6095 118.421 77.5859H118.42Z" fill="#E3FFD2"/>
<path d="M152.18 88.6824L120.526 88.875L120.528 89.0938L152.181 88.9012L152.18 88.6824Z" fill="#090034"/>
<path d="M111.412 94.0133C111.55 94.0178 111.687 93.9605 111.773 93.8506C111.908 93.6755 111.862 93.432 111.669 93.3063C111.639 93.2861 108.602 91.2438 108.25 85.771C107.899 80.3341 112.123 78.3748 112.166 78.3557C112.378 78.2614 112.463 78.0269 112.357 77.8339C112.25 77.6397 111.995 77.5612 111.784 77.6543C111.589 77.7419 107.013 79.8639 107.396 85.8091C107.775 91.687 111.04 93.8506 111.179 93.9403C111.25 93.9864 111.331 94.0088 111.412 94.011V94.0133Z" fill="#090034"/>
<path d="M128.102 85.5724L128.092 85.791L152.374 86.9191L152.384 86.7006L128.102 85.5724Z" fill="#090034"/>
<path d="M97.3602 92.5052C97.3118 92.4423 92.5551 86.0987 97.2814 79.3994C97.3613 79.286 97.4875 79.2187 97.6227 79.2176L104.896 79.1738C105.07 79.1873 105.203 79.2658 105.277 79.4151C105.352 79.5643 105.341 79.745 105.248 79.8819C105.227 79.9145 103.123 83.0969 103.781 86.2334C104.464 89.491 105.722 91.9362 105.736 91.9609C105.808 92.1001 105.806 92.2684 105.729 92.4053C105.653 92.5411 105.514 92.6252 105.363 92.6264L97.697 92.6724C97.697 92.6724 97.6869 92.6724 97.6823 92.6724C97.5573 92.669 97.4402 92.6073 97.3613 92.5052H97.3602ZM102.944 86.4275C102.396 83.8207 103.488 81.279 104.13 80.0783L97.8434 80.1165C94.0712 85.6678 97.2115 90.7726 97.9042 91.7724L104.669 91.732C104.233 90.7669 103.448 88.8278 102.945 86.4275H102.944Z" fill="#090034"/>
<path d="M131.823 96.4902L90.0249 96.5351L42.75 99.3854L42.7534 102.939L88.4502 99.3372C93.0548 99.3327 96.7932 103.403 96.7977 108.429C96.8034 113.455 93.074 117.533 88.4694 117.538L42.7691 117.586L42.7714 120.211L131.847 120.116C137.825 120.11 142.665 114.816 142.658 108.292C142.651 101.768 137.799 96.4846 131.821 96.4914L131.823 96.4902Z" fill="#7183C3"/>
<path d="M100.861 108.335C100.854 101.811 96.0027 96.5276 90.0239 96.5332L42.749 99.3835L42.7524 102.937L88.4492 99.3353C93.0538 99.3308 96.7923 103.401 96.7968 108.427C96.8024 113.453 93.073 117.531 88.4684 117.536L42.7682 117.584L42.7704 120.209L90.0475 120.158C96.0252 120.151 100.865 114.858 100.858 108.334L100.861 108.335Z" fill="#7183C3"/>
<path d="M88.4527 99.3477L42.7559 102.941C46.9077 103.457 48.2999 107.594 48.9498 109.804C50.2676 114.286 46.9223 117.009 42.7716 117.535V117.596L88.4718 117.548C93.0764 117.544 96.8058 113.465 96.8002 108.439C96.7946 103.413 93.0573 99.3432 88.4527 99.3477Z" fill="#E3FFD2"/>
<g opacity="0.3">
<path d="M86.0857 111.829L49.1982 111.867L49.1985 112.124L86.086 112.086L86.0857 111.829Z" fill="#090034"/>
</g>
<g opacity="0.5">
<path d="M96.7693 117.063C96.847 117.063 96.927 117.043 96.9991 117C97.1601 116.906 100.948 114.608 101.314 108.367C101.508 105.065 100.08 102.89 98.8474 101.647C97.5172 100.305 96.1475 99.7458 96.0901 99.7222C95.858 99.6291 95.5933 99.7413 95.4999 99.9725C95.4064 100.204 95.5179 100.467 95.7499 100.56C95.7623 100.566 97.0272 101.087 98.2268 102.307C99.8139 103.921 100.548 105.942 100.409 108.314C100.072 114.049 96.5722 116.2 96.5361 116.221C96.3221 116.349 96.2511 116.627 96.3784 116.841C96.4629 116.983 96.6138 117.062 96.7693 117.062V117.063Z" fill="#090034"/>
</g>
<g opacity="0.3">
<path d="M77.2339 108.228L48.9473 109.67L48.9605 109.927L77.2471 108.484L77.2339 108.228Z" fill="#090034"/>
</g>
<g opacity="0.5">
<path d="M104.091 113.723C103.493 112.888 103.338 111.862 103.668 110.909C103.92 110.183 104.132 109.454 104.3 108.74C104.516 107.82 104.478 106.807 104.185 105.729C103.933 104.799 104.134 103.816 104.735 103.032C105.411 102.153 106.514 101.626 107.685 101.625L109.7 101.623H109.705C111.011 101.623 112.205 102.254 112.822 103.27C115.402 107.518 113.963 111.448 112.876 113.413C112.261 114.525 111.031 115.216 109.667 115.217L107.114 115.219H107.109C105.89 115.219 104.761 114.66 104.09 113.723H104.091ZM109.701 102.571L107.686 102.574C106.809 102.574 105.989 102.962 105.491 103.609C105.064 104.165 104.926 104.829 105.103 105.482C105.437 106.713 105.478 107.882 105.225 108.956C105.05 109.7 104.829 110.461 104.566 111.219C104.334 111.888 104.44 112.582 104.863 113.174C105.357 113.861 106.195 114.272 107.108 114.272H107.112L109.665 114.27C110.682 114.27 111.593 113.765 112.041 112.956C113.028 111.17 114.337 107.603 112.006 103.763C111.56 103.029 110.678 102.574 109.702 102.574H109.699L109.701 102.571Z" fill="#090034"/>
</g>
<path d="M125.156 72.2918C125.156 72.2918 125.112 73.7708 126.093 74.2421C127.073 74.7135 129.96 75.2476 128.821 76.1386C128.168 76.6492 125.25 76.1386 124.421 76.0926C123.592 76.0477 122.793 76.3653 122.207 75.7784C121.563 75.1331 122.407 72.1426 122.407 72.1426C122.407 72.1426 123.102 72.5533 123.746 72.5712C124.675 72.5982 125.156 72.2918 125.156 72.2918Z" fill="#090034"/>
<path d="M134.189 72.2821C134.189 72.2821 134.145 73.7611 135.126 74.2324C136.108 74.7037 138.993 75.2378 137.855 76.1288C137.201 76.6394 134.283 76.1289 133.454 76.0828C132.625 76.038 131.826 76.3555 131.24 75.7686C130.596 75.1234 131.44 72.1328 131.44 72.1328C131.44 72.1328 132.135 72.5435 132.78 72.5615C133.71 72.5884 134.19 72.2821 134.19 72.2821H134.189Z" fill="#090034"/>
<path d="M135.266 69.8384C134.531 60.1473 134.359 53.6085 131.281 49.4071C127.912 44.8095 118.88 41.5575 115.398 41.3544C109.718 41.0234 107.042 41.8661 107.042 41.8661C102.779 50.6976 109.456 51.8691 114.395 52.1104C114.559 52.1182 114.722 52.1272 114.886 52.1373C117.877 52.3247 123.193 53.0822 125.206 56.0424C126.8 58.3867 127.906 61.678 128.372 70.166C128.461 71.7954 129.833 73.0579 131.47 73.013C131.47 73.013 135.529 73.3227 135.266 69.8372V69.8384Z" fill="#004657"/>
<path d="M127.205 70.3389C127.302 60.6209 127.605 55.6598 124.678 51.3529C122.797 48.5868 119.968 46.4973 116.27 45.1451C113.631 44.18 110.527 43.5875 107.045 43.3855C101.366 43.0545 98.8139 42.3711 98.8139 42.3711C94.2172 53.6758 111.031 51.2766 115.408 56.093C117.315 58.1914 119.678 62.183 120.144 70.6721C120.233 72.3015 121.605 73.564 123.241 73.5191C123.241 73.5191 127.17 73.8916 127.205 70.3389Z" fill="#004657"/>
<path d="M127.176 60.7921L127.241 60.7887C127.238 60.7304 126.949 54.9524 125.974 52.9269C124.739 50.3638 121.162 47.6897 117.466 46.5664L117.447 46.6281C121.127 47.7458 124.688 50.4065 125.914 52.9538C126.884 54.967 127.172 60.7326 127.175 60.7899L127.176 60.7921Z" fill="#090034"/>
<path d="M121.141 34.1143C123.299 34.5227 125.742 34.1389 128.411 32.9685C130.428 32.0854 131.856 31.0485 131.916 31.0047L129.557 27.6416L130.736 29.3237L129.56 27.6394C128.333 28.5281 124.524 30.6815 121.678 29.9847C120.386 29.6671 119.389 28.7761 118.63 27.2578L114.994 29.1633C116.286 31.7465 118.262 33.4264 120.708 34.0211C120.85 34.0559 120.994 34.0873 121.14 34.1143H121.141Z" fill="#FFAD97"/>
<path d="M102.842 24.4206C102.842 24.4206 105.258 20.3056 110.828 21.5692C116.398 22.8316 118.667 28.4997 119.067 42.1093C119.067 42.1093 113.91 41.9208 100.363 46.3971C98.7581 46.9279 96.4051 46.5071 97.2284 43.7836C98.7603 38.7215 100.244 28.6231 102.843 24.4217L102.842 24.4206Z" fill="#62B0BB"/>
<path d="M96.715 25.6246L102.444 26.6974C102.444 26.6974 112.462 29.6487 115.266 29.6723C118.071 29.6959 119.231 27.6524 119.231 27.6524C119.231 27.6524 116.969 23.8269 112.228 22.0225C111.784 21.8519 111.316 21.7004 110.827 21.5714C110.006 21.3548 109.172 21.1651 108.336 21.1562C98.8787 21.0484 96.7139 25.6246 96.7139 25.6246H96.715Z" fill="#62B0BB"/>
<path d="M96.7158 25.6229C96.5919 26.0729 97.7926 26.8236 99.3977 27.2994C101.003 27.7752 102.405 27.7965 102.529 27.3466C102.653 26.8966 101.452 26.1458 99.8471 25.67C98.2421 25.1942 96.8397 25.1729 96.7158 25.6229Z" fill="#090034"/>
<path d="M108.346 21.1532C108.957 21.2025 109.55 20.9265 109.895 20.4193L110.972 18.8314L111.286 18.3702L113.124 15.6602L112.32 18.6765L111.836 20.4877L111.699 21.0039C111.586 21.4247 111.814 21.8601 112.223 22.015L112.229 22.0172C112.386 22.4279 112.557 23.2348 111.564 23.3549C110.397 23.4951 108.781 22.2955 108.338 21.1509C108.341 21.1509 108.345 21.1509 108.348 21.1509L108.346 21.1532Z" fill="#FFAD97"/>
<path d="M109.75 14.5039C109.75 14.5039 109.772 15.028 109.287 16.002C108.576 17.4272 110.182 18.3821 110.706 18.0365C110.771 17.9938 111.187 15.4196 111.187 15.4196L110.697 14.9887L109.749 14.5039H109.75Z" fill="#090034"/>
<path d="M110.979 18.7821C110.977 18.799 110.975 18.8158 110.972 18.8337C110.857 19.8336 111.828 20.4946 111.828 20.4946L111.836 20.4901L112.319 18.6789C112.019 18.4993 111.581 18.2906 111.285 18.3714C111.131 18.4141 111.016 18.5352 110.979 18.781V18.7821Z" fill="#090034"/>
<path d="M116.047 16.7207C116.421 14.7626 115.432 12.9308 113.839 12.6291C112.246 12.3275 110.651 13.6703 110.278 15.6284C109.904 17.5865 110.893 19.4184 112.486 19.72C114.08 20.0216 115.674 18.6788 116.047 16.7207Z" fill="#FFAD97"/>
<path d="M114.831 13.6725C114.73 13.7668 114.837 15.6756 111.362 15.4691C107.887 15.2627 110.707 11.5483 113.227 11.9298C116.867 12.4808 116.931 15.0001 116.417 15.8058C115.904 16.6115 114.833 13.6725 114.833 13.6725H114.831Z" fill="#090034"/>
<path d="M110.032 10.4417C110.032 10.4417 111.362 11.7456 110.007 12.4795C108.653 13.2134 105.351 13.0215 105.922 14.8001C106.493 16.5788 106.799 19.1126 105.159 19.1115C103.52 19.1115 102.547 18.8029 101.663 19.9352C100.779 21.0675 98.0563 19.7467 98.5755 18.2979C99.0948 16.8492 96.8848 15.0695 98.2016 13.8946C99.5183 12.7208 102.325 12.0138 103.311 10.344C104.297 8.67424 108.949 9.4317 110.032 10.4405V10.4417Z" fill="#090034"/>
<path d="M111.848 14.9621C111.848 14.9621 110.185 16.1549 110.382 17.7349C110.382 17.7349 109.745 16.7082 109.789 16.3771C109.834 16.0472 110.273 14.9082 110.273 14.9082L111.848 14.9621Z" fill="#090034"/>
<path d="M110.57 16.2392C110.837 16.6117 111.289 16.7307 111.577 16.504C111.865 16.2773 111.883 15.7914 111.615 15.4189C111.348 15.0463 110.897 14.9274 110.608 15.154C110.32 15.3807 110.302 15.8666 110.57 16.2392Z" fill="#FFAD97"/>
<path d="M101.721 19.9489C102.148 18.3486 103.094 18.2768 104.097 18.2005C104.494 18.1702 104.905 18.1388 105.297 18.0142C105.484 17.9548 105.615 17.8515 105.686 17.7079C105.864 17.3477 105.658 16.7799 105.419 16.1223C105.071 15.1639 104.677 14.0788 105.266 13.2349C106.406 11.6022 108.129 11.5315 108.147 11.5304C109.151 11.5932 109.67 11.481 109.73 11.187C109.79 10.8896 109.321 10.5597 109.147 10.4991C107.743 10.0098 106.118 9.81232 103.767 11.665C101.911 13.1261 102.039 13.9475 102.2 14.9889C102.236 15.2189 102.272 15.4557 102.289 15.7138C102.302 15.918 102.259 16.0695 102.157 16.1761C101.931 16.414 101.425 16.4084 100.935 16.4028C100.302 16.395 99.6486 16.3882 99.4717 16.8887C99.3343 17.2803 99.4909 17.746 99.6418 18.1972C99.7972 18.6584 99.9437 19.0949 99.7634 19.4001C99.6452 19.5999 99.394 19.7312 98.9941 19.8041L99.0155 19.9219C99.4514 19.8423 99.7297 19.6919 99.8671 19.4607C100.075 19.1084 99.92 18.6471 99.7556 18.159C99.6103 17.7281 99.4605 17.2815 99.5844 16.9291C99.7319 16.5094 100.315 16.5161 100.931 16.524C101.446 16.5296 101.979 16.5363 102.243 16.2603C102.368 16.129 102.423 15.9438 102.407 15.7071C102.39 15.4434 102.353 15.2032 102.317 14.9709C102.161 13.9688 102.039 13.1777 103.839 11.7593C106.145 9.94249 107.733 10.1355 109.104 10.6135C109.271 10.6719 109.648 10.9659 109.609 11.1634C109.589 11.2644 109.405 11.49 108.146 11.4103C108.122 11.4103 106.338 11.4843 105.164 13.1654C104.54 14.0597 104.964 15.2245 105.304 16.1615C105.534 16.7933 105.732 17.3398 105.577 17.654C105.52 17.7696 105.417 17.8493 105.26 17.8998C104.882 18.021 104.478 18.0513 104.088 18.0816C103.042 18.1612 102.053 18.2364 101.605 19.9186L101.722 19.9489H101.721Z" fill="white"/>
<path d="M111.939 14.4093C113.017 14.4093 113.71 13.6698 113.718 13.662L113.637 13.5879C113.629 13.5969 112.802 14.4755 111.561 14.2679L111.543 14.3757C111.68 14.3992 111.813 14.4093 111.939 14.4093Z" fill="white"/>
<path d="M114.913 18.8076C114.294 18.5663 114.021 17.7741 114.302 17.0424C114.453 16.6497 114.74 16.3366 115.091 16.1829C115.37 16.0594 115.669 16.0493 115.933 16.1526C116.552 16.3938 116.825 17.1861 116.545 17.9177C116.394 18.3105 116.107 18.6236 115.756 18.7773C115.539 18.8727 115.31 18.9007 115.095 18.8603C115.033 18.8491 114.972 18.8312 114.914 18.8087L114.913 18.8076ZM115.118 16.2468C114.784 16.3938 114.511 16.6923 114.366 17.0671C114.099 17.7629 114.355 18.5147 114.937 18.7414C115.184 18.8379 115.465 18.8278 115.726 18.7122C116.059 18.5652 116.333 18.2667 116.477 17.8919C116.744 17.1962 116.489 16.4443 115.906 16.2176C115.851 16.1963 115.795 16.1806 115.737 16.1694C115.536 16.1312 115.32 16.157 115.118 16.2468Z" fill="#62B0BB"/>
<path d="M112.196 17.8893C111.578 17.648 111.304 16.8557 111.585 16.1241C111.736 15.7313 112.023 15.4182 112.373 15.2645C112.653 15.1422 112.951 15.131 113.216 15.2342C113.834 15.4755 114.108 16.2677 113.826 16.9994C113.675 17.3921 113.388 17.7052 113.038 17.859C112.82 17.9543 112.592 17.9824 112.377 17.9409C112.315 17.9297 112.254 17.9117 112.195 17.8893H112.196ZM112.401 15.3296C112.068 15.4766 111.794 15.7751 111.65 16.1499C111.383 16.8456 111.639 17.5975 112.221 17.8242C112.468 17.9207 112.748 17.9106 113.01 17.795C113.343 17.648 113.617 17.3495 113.761 16.9747C114.028 16.279 113.772 15.5271 113.19 15.3004C113.135 15.2791 113.078 15.2634 113.021 15.2522C112.819 15.214 112.604 15.2398 112.401 15.3296Z" fill="#62B0BB"/>
<path d="M114.618 17.2389C114.629 17.2412 114.64 17.2389 114.649 17.2299C114.663 17.2165 114.664 17.194 114.649 17.1806C114.636 17.1671 114.314 16.8383 113.646 16.8125C113.626 16.8125 113.61 16.8271 113.608 16.8462C113.608 16.8652 113.623 16.8821 113.642 16.8832C114.28 16.9079 114.594 17.2266 114.597 17.2299C114.603 17.2356 114.61 17.2389 114.616 17.24L114.618 17.2389Z" fill="#62B0BB"/>
<path d="M114.324 18.7758C114.324 18.7758 113.334 18.612 112.415 18.0801C112.415 18.0801 112.148 19.0317 113.203 19.2988C113.817 19.4536 114.324 18.7747 114.324 18.7747V18.7758Z" fill="#E9633E"/>
<path d="M114.326 18.7758C114.326 18.7758 114.05 18.9273 113.494 18.8196C112.939 18.7119 112.417 18.0801 112.417 18.0801C112.417 18.0801 113.542 18.6299 114.326 18.7758Z" fill="white"/>
<path d="M113.441 16.268C113.462 16.2669 113.481 16.2557 113.492 16.2377C113.512 16.2063 113.503 16.1659 113.472 16.1457C113.454 16.1345 113.055 15.8237 112.587 16.1738C112.557 16.1962 112.549 16.2366 112.571 16.2669C112.592 16.2972 112.63 16.2972 112.664 16.2826C113.004 16.1379 113.384 16.249 113.4 16.2591C113.412 16.2669 113.427 16.2703 113.44 16.2692L113.441 16.268Z" fill="#090034"/>
<path d="M112.786 16.8858C112.751 17.0406 112.814 17.1865 112.928 17.2123C113.041 17.237 113.16 17.1326 113.195 16.9766C113.23 16.8218 113.167 16.6759 113.053 16.6501C112.94 16.6254 112.821 16.7298 112.786 16.8858Z" fill="#090034"/>
<path d="M115.717 17.0505C115.736 17.0572 115.759 17.0539 115.776 17.0415C115.806 17.0202 115.813 16.9787 115.793 16.9495C115.78 16.9316 115.53 16.4939 114.964 16.6387C114.928 16.6477 114.905 16.6824 114.914 16.7184C114.923 16.7543 114.958 16.7689 114.994 16.7677C115.364 16.7632 115.673 17.0101 115.683 17.0247C115.692 17.0371 115.704 17.0449 115.717 17.0494V17.0505Z" fill="#090034"/>
<path d="M114.876 17.3749C114.784 17.5051 114.787 17.6644 114.881 17.7306C114.976 17.7968 115.127 17.7452 115.218 17.615C115.309 17.4849 115.307 17.3255 115.212 17.2593C115.118 17.1931 114.967 17.2447 114.876 17.3749Z" fill="#090034"/>
<path d="M110.957 43.8756C110.957 43.8756 114.176 43.6926 115.008 44.3805C115.839 45.0684 116.378 46.5733 115.772 46.2557C115.166 45.9381 114.504 45.3198 114.504 45.3198C114.504 45.3198 115.856 46.7079 115.394 46.8818C114.931 47.0558 113.767 45.8382 113.767 45.8382C113.767 45.8382 115.244 47.618 114.753 47.6416C114.262 47.6651 113.15 46.3062 113.15 46.3062C113.15 46.3062 114.458 48.0164 113.887 48.0309C113.316 48.0455 112.816 46.6103 112.353 46.7853C111.89 46.9593 110.565 47.9659 109.921 46.7427L110.957 43.8756Z" fill="#FFAD97"/>
<path d="M114.47 45.3402L114.535 45.2942C114.522 45.2751 114.194 44.8251 113.838 44.8341L113.84 44.9138C114.154 44.9082 114.466 45.3368 114.47 45.3402Z" fill="#F47C53"/>
<path d="M113.733 45.859L113.798 45.8141C113.785 45.795 113.475 45.354 112.98 45.2676L112.967 45.3461C113.429 45.4269 113.729 45.8545 113.733 45.859Z" fill="#F47C53"/>
<path d="M113.116 46.3279L113.181 46.2819C113.165 46.2594 112.779 45.7264 112.4 45.7679L112.409 45.8465C112.742 45.8094 113.112 46.3223 113.117 46.3279H113.116Z" fill="#F47C53"/>
<path d="M99.0907 40.3358C101.462 44.2028 104.496 45.7559 109.921 46.7411L110.957 43.8751C107.008 43.1581 104.985 40.31 103.396 37.7178C101.135 34.0292 101.543 29.5361 101.881 27.551C101.913 27.3624 101.838 27.1728 101.686 27.0572C101.181 26.6723 99.8724 25.8879 97.5352 25.8419C97.3268 25.8374 97.1432 25.9766 97.0891 26.1774C96.1114 29.848 96.1047 35.4667 99.0896 40.3369L99.0907 40.3358Z" fill="#FFAD97"/>
<path d="M99.9872 39.4903C99.709 39.3781 99.4601 39.1155 99.3204 38.7867C99.0771 38.2121 99.2281 37.5972 99.6561 37.4154C99.8262 37.3436 100.017 37.3458 100.209 37.4232C100.487 37.5355 100.736 37.798 100.876 38.1268C101.119 38.7014 100.968 39.3163 100.54 39.4981C100.458 39.5329 100.371 39.5509 100.282 39.5509C100.187 39.5509 100.087 39.5307 99.9884 39.4914L99.9872 39.4903ZM99.7293 37.5871C99.3959 37.7285 99.29 38.2346 99.4928 38.7137C99.6133 38.9976 99.8239 39.2221 100.057 39.3163C100.201 39.3747 100.343 39.3769 100.465 39.3253C100.798 39.1839 100.904 38.6778 100.701 38.1987C100.581 37.9148 100.37 37.6903 100.137 37.5961C100.06 37.5658 99.9861 37.55 99.914 37.55C99.8498 37.55 99.7879 37.5624 99.7293 37.5871Z" fill="#F47C53"/>
<path d="M120.482 28.5522L119.781 36.2895C119.737 36.6228 119.671 37.5362 121.862 37.314L125.6 36.8034C125.654 36.8214 126.04 36.0561 126.098 36.055L126.877 36.3366C126.998 36.3366 127.118 36.2962 127.222 36.2222L130.383 33.9689C130.544 33.8544 130.653 33.6681 130.682 33.4605L131.61 26.8465C131.686 26.3101 131.213 25.9184 130.766 26.1462L128.162 27.4771C128.092 27.513 128.016 27.5355 127.939 27.5411L126.766 27.6297C126.652 27.6387 126.696 27.6757 126.598 27.6163L121.414 27.256C120.597 27.256 120.547 28.0606 120.482 28.551V28.5522Z" fill="#7183C3"/>
<path d="M126.592 27.6463L128.055 27.5352L127.061 36.3386C127.061 36.3386 127.016 37.1409 125.599 36.8043L126.591 27.6451L126.592 27.6463Z" fill="#090034"/>
<path d="M121.645 27.2743C121.645 27.2743 121.748 26.7065 122.561 26.9186C123.56 27.179 125.819 26.6796 126.391 26.8883C126.963 27.097 127.201 27.2036 127.201 27.2036C127.201 27.2036 127.139 26.6515 127.898 26.5281C128.657 26.4047 130.118 25.8582 130.471 26.3014L128.057 27.5358L126.594 27.6469L121.645 27.2755V27.2743Z" fill="#E4ECFF"/>
<path d="M127.142 27.2254L127.257 27.1839C127.253 27.1761 126.954 26.3827 126.047 26.5173C125.365 26.6183 124.709 26.6374 124.075 26.6554C123.372 26.6756 122.708 26.6935 122.141 26.8304L122.17 26.9494C122.725 26.8158 123.382 26.7979 124.078 26.7777C124.717 26.7597 125.376 26.7406 126.065 26.6385C126.87 26.5185 127.13 27.1974 127.142 27.2265V27.2254Z" fill="#E4ECFF"/>
<path d="M132.574 30.2717C132.574 30.2717 133.107 29.108 132.037 28.631C130.674 28.024 128.392 28.5682 129.25 28.9655C130.012 29.3167 131.212 29.5591 131.212 29.5591C131.212 29.5591 128.151 28.9868 128.249 29.6612C128.347 30.3356 130.987 30.7912 130.987 30.7912C130.987 30.7912 127.954 30.514 128.253 31.1211C128.553 31.7282 130.948 32.1569 130.948 32.1569C130.948 32.1569 127.998 31.7271 128.362 32.424C128.727 33.1208 130.298 33.0344 130.971 33.15C131.608 33.2589 131.885 32.8852 131.945 32.2657C131.945 32.2657 132.367 31.6845 132.304 31.2693C132.28 31.1099 132.449 30.9854 132.482 30.8765C132.544 30.6689 132.576 30.2717 132.576 30.2717H132.574Z" fill="#FFAD97"/>
<path d="M62.9146 118.074C62.9146 118.074 62.8414 119.659 61.7567 120.083C60.6709 120.508 57.543 120.847 58.6874 121.89C59.344 122.488 62.5035 122.175 63.3933 122.194C64.2832 122.212 65.1111 122.616 65.7846 122.036C66.5258 121.398 65.8657 118.134 65.8657 118.134C65.8657 118.134 65.0897 118.517 64.3992 118.484C63.4046 118.438 62.9146 118.072 62.9146 118.072V118.074Z" fill="#090034"/>
<path d="M53.4234 117.163C53.4234 117.163 53.3333 118.747 52.243 119.16C51.1527 119.573 48.0213 119.879 49.1545 120.934C49.8044 121.54 52.9672 121.26 53.8571 121.288C54.7469 121.316 55.5703 121.728 56.2495 121.156C56.9974 120.526 56.3723 117.255 56.3723 117.255C56.3723 117.255 55.5917 117.63 54.9023 117.59C53.9078 117.532 53.4223 117.162 53.4223 117.162L53.4234 117.163Z" fill="#090034"/>
<path d="M54.1497 118.475C52.3115 118.266 50.9621 116.654 51.0894 114.815C51.8069 104.425 52.7767 99.1919 56.3 94.8625C58.564 92.0807 61.8699 89.4414 65.8347 87.9994C69.2532 86.756 72.1333 86.2297 75.8706 86.333C81.9643 86.5002 84.7442 87.6448 84.7442 87.6448C88.4792 97.4649 81.2423 98.1034 75.9472 97.9081C75.7726 97.9014 75.5969 97.8969 75.4201 97.8924C72.2099 97.8183 66.4632 98.1393 64.0415 101.115C62.1233 103.472 60.6387 106.884 59.3569 115.904C59.1114 117.635 57.5299 118.858 55.7863 118.66L54.1508 118.475H54.1497Z" fill="#004657"/>
<path d="M62.888 119.766C61.0498 119.557 59.7004 117.945 59.8276 116.105C60.5451 105.715 61.5149 100.483 65.0382 96.1533C67.3022 93.3715 70.5146 91.4009 74.5876 90.2967C77.4948 89.509 80.8626 89.1611 84.5999 89.2632C90.6936 89.4304 93.4813 88.9355 93.4813 88.9355C97.3448 101.426 79.6157 97.3226 74.4975 102.064C72.2673 104.13 69.3759 108.174 68.0941 117.195C67.8485 118.925 66.2671 120.149 64.5235 119.951L62.888 119.766Z" fill="#004657"/>
<path d="M74.9333 71.2949C74.4523 71.9132 69.7599 77.2379 69.7002 83.1158L74.0761 82.2338L77.1309 74.7512L74.9333 71.296V71.2949Z" fill="#FFAD97"/>
<path d="M91.8788 71.333C91.8788 71.333 90.0067 66.3954 83.6067 66.7377C77.2078 67.08 72.7125 69.5947 71.7832 87.3878C71.7832 87.3878 80.6151 86.8873 90.7119 92.809C92.4115 93.8055 95.0664 93.6046 95.1745 91.6431C95.3908 87.7346 94.5843 80.2699 91.8788 71.333Z" fill="#FF4929"/>
<path d="M97.5023 72.1151L91.8794 73.8892C91.8794 73.8892 80.2373 75.247 77.1341 74.751C74.031 74.255 73.1445 71.811 73.1445 71.811C73.1445 71.811 76.3851 68.0596 81.973 66.9722C82.4979 66.8689 83.0431 66.7904 83.6085 66.741C84.558 66.658 85.4704 66.5704 86.4019 66.6681C95.5064 67.6197 97.5023 72.1151 97.5023 72.1151Z" fill="#FF4929"/>
<path d="M97.4998 72.1131C97.8005 72.7808 96.4838 73.4081 94.8686 74.0039C93.2533 74.5998 91.8138 74.721 91.6516 74.2721C91.4894 73.8244 92.6676 72.9772 94.2828 72.3813C95.8981 71.7854 97.3038 71.6777 97.4998 72.1131Z" fill="#090034"/>
<path d="M81.4914 89.1663C80.3966 89.0047 79.5383 88.5951 78.8907 87.9398C77.6674 86.7009 77.6573 85.0132 78.0211 83.9438L79.4527 83.3748C79.5721 83.0247 81.915 84.7394 81.9116 84.7371C81.9228 84.7427 83.0729 85.2668 87.5569 83.7608C90.6781 82.7127 92.4533 80.832 92.9827 78.0131C93.3814 75.8877 92.6876 74.7959 92.54 74.2426C92.5197 74.1686 92.9252 73.2416 94.5911 72.6929C96.3899 72.1004 97.0444 72.5616 97.0444 72.5616C97.3124 73.5648 97.861 75.8563 97.3046 78.8211C96.7267 81.9003 94.8063 85.985 88.9413 87.9544C85.7424 89.0283 83.2981 89.4323 81.4937 89.1652L81.4914 89.1663Z" fill="#FFAD97"/>
<g opacity="0.3">
<path d="M92.6925 84.4047C92.4323 84.1971 92.5201 83.6675 92.8907 83.1973C93.1329 82.8909 93.4449 82.6811 93.7051 82.6519C93.8278 82.6384 93.936 82.6642 94.0171 82.7293C94.2773 82.9369 94.1894 83.4666 93.8188 83.9368C93.5767 84.2431 93.2647 84.453 93.0045 84.4822C92.9831 84.4844 92.9617 84.4855 92.9414 84.4855C92.8445 84.4855 92.7589 84.4575 92.6925 84.4047ZM93.6994 83.8425C94.0069 83.4531 94.1094 82.9975 93.9225 82.8483C93.8729 82.809 93.8064 82.7944 93.7231 82.8034C93.5057 82.8281 93.2252 83.02 93.0112 83.2915C92.7037 83.6809 92.6012 84.1365 92.7882 84.2858C92.8378 84.3251 92.9042 84.3408 92.9876 84.3307C93.205 84.306 93.4854 84.1141 93.6994 83.8425Z" fill="#F47C53"/>
</g>
<path d="M84.7608 65.8795L83.7967 64.1861L83.5162 63.6935L81.8672 60.7949L82.4191 63.9157L82.7503 65.7886L82.855 66.3811C82.926 66.7839 82.7007 66.9208 82.4799 67.3315C82.3909 67.4987 81.8075 68.5177 82.766 68.7118C83.96 68.9542 85.8365 67.7849 86.4008 66.665C86.3941 66.665 85.0717 66.426 84.7608 65.8783V65.8795Z" fill="#FFAD97"/>
<path d="M79.1207 60.1699C79.1207 60.1699 79.0892 60.9655 79.4935 61.8666C79.8979 62.7677 80.3518 60.2384 80.3518 60.2384L79.1207 60.171V60.1699Z" fill="#090034"/>
<path d="M79.4388 62.1623C79.2789 60.2849 80.4154 58.6566 81.9777 58.5242C83.54 58.3918 84.9367 59.8057 85.0966 61.6831C85.2565 63.5605 84.12 65.1888 82.5578 65.3212C80.9955 65.4536 79.5988 64.0397 79.4388 62.1623Z" fill="#FFAD97"/>
<path d="M84.9583 60.7148L83.5852 60.8685C83.2834 60.9022 82.9792 60.8034 82.7641 60.5891C82.3947 60.2199 82.0151 60.0718 80.7738 60.3916C79.2014 60.7967 77.9477 60.083 77.5941 59.293C77.2336 58.4873 77.9196 57.7388 78.8049 57.9677C79.6902 58.1967 79.1316 57.2843 79.8738 57.0128C81.2627 56.5055 81.7718 57.5458 82.9353 57.2552C84.4615 56.8736 87.4689 57.4369 86.7548 60.4163L84.9571 60.7148H84.9583Z" fill="#090034"/>
<path d="M82.091 61.8159C82.0742 61.8103 82.0606 61.7968 82.0561 61.7788C82.0471 61.7485 82.064 61.7171 82.0944 61.707C82.1124 61.7014 82.5146 61.5353 82.8232 61.9337C82.8423 61.9584 82.839 61.9943 82.8142 62.0145C82.7894 62.0347 82.7579 62.0257 82.7331 62.0055C82.4841 61.8069 82.1429 61.8125 82.1282 61.817C82.1158 61.8204 82.1034 61.8204 82.0922 61.817L82.091 61.8159Z" fill="#090034"/>
<path d="M82.4946 62.4798C82.4879 62.6167 82.4012 62.7234 82.302 62.7177C82.2029 62.7121 82.1275 62.5977 82.1342 62.4608C82.141 62.3239 82.2277 62.2173 82.3268 62.2229C82.4259 62.2285 82.5014 62.3429 82.4946 62.4798Z" fill="#090034"/>
<path d="M79.9742 62.1031C79.9607 62.1031 79.9472 62.0963 79.9382 62.0818C79.9224 62.0571 79.9247 62.0212 79.9438 62.001C79.9551 61.9897 80.1905 61.6868 80.5318 61.9415C80.5532 61.9572 80.5622 61.992 80.5498 62.02C80.5385 62.0481 80.5138 62.0515 80.4901 62.0425C80.2524 61.9505 80.0114 62.0818 80.0024 62.0919C79.9945 62.0997 79.9855 62.1042 79.9765 62.1042L79.9742 62.1031Z" fill="#090034"/>
<path d="M80.6154 62.5661C80.6616 62.6952 80.6221 62.8265 80.5286 62.8601C80.4352 62.8927 80.3214 62.8152 80.2752 62.6862C80.229 62.5571 80.2685 62.4259 80.3619 62.3922C80.4554 62.3596 80.5692 62.4371 80.6154 62.5661Z" fill="#090034"/>
<path d="M86.7547 60.4166C86.7547 60.4166 86.2658 62.6115 84.9829 63.0447C84.9829 63.0447 85.7128 61.2941 83.2686 60.8565C83.2686 60.8565 85.2555 60.0855 86.7547 60.4166Z" fill="#090034"/>
<path d="M85.1425 61.9203C84.9003 62.1593 84.5298 62.1795 84.3157 61.9641C84.1006 61.7486 84.1231 61.3794 84.3653 61.1404C84.6075 60.9014 84.978 60.8812 85.1921 61.0967C85.4072 61.3121 85.3847 61.6813 85.1425 61.9203Z" fill="#FFAD97"/>
<path d="M83.2689 60.8563C83.2689 60.8563 83.8152 62.4902 83.5437 62.8807C83.2712 63.2712 81.0455 63.8985 79.9033 63.7234C80.1218 64.8018 81.0894 65.584 82.1921 65.5301C82.557 65.5122 82.9209 65.4336 83.2689 65.2922C83.9774 65.0027 84.6273 64.5437 84.7827 63.7953C84.8301 63.5675 84.2804 62.351 84.2804 62.351C84.2804 62.351 84.0146 61.625 84.366 61.1402C84.366 61.1402 83.7623 60.798 83.27 60.8563H83.2689Z" fill="#090034"/>
<path d="M80.5908 64.2037C80.5908 64.2037 81.5066 64.2485 82.4313 63.9512C82.4313 63.9512 82.4842 64.8534 81.4897 64.8871C80.9118 64.9073 80.5908 64.2025 80.5908 64.2025V64.2037Z" fill="white"/>
<path d="M78.9217 57.8044C79.3621 57.7225 79.3193 57.3432 79.3193 57.3398L79.2427 57.3488C79.2439 57.3612 79.2754 57.6597 78.9082 57.7281L78.9228 57.8044H78.9217Z" fill="#090034"/>
<path d="M80.2242 60.0483L80.2265 60.0101C80.2085 60.009 78.4119 59.8777 78.1517 59.0282C78.0785 58.7881 78.0841 58.6164 78.1686 58.5042C78.3038 58.3246 78.6248 58.328 78.9064 58.3325C78.9492 58.3325 78.9909 58.3336 79.0325 58.3325V58.2943C78.9931 58.2943 78.9503 58.2943 78.9064 58.2943C78.6147 58.2898 78.2846 58.2853 78.1371 58.4817C78.0447 58.604 78.0368 58.7869 78.1145 59.0406C78.2261 59.4041 78.6259 59.6937 79.2736 59.8788C79.7591 60.018 80.2186 60.0494 80.2231 60.0505L80.2242 60.0483Z" fill="white"/>
<path d="M82.4611 57.6463C82.8092 57.6463 83.2124 57.5869 83.6618 57.423L83.6483 57.3871C82.05 57.9684 81.0543 57.2188 81.0442 57.2109L81.0205 57.2412C81.0273 57.2468 81.5578 57.6463 82.46 57.6463H82.4611Z" fill="white"/>
<path d="M60.293 110.262H60.3628C60.3628 110.223 60.3684 106.267 61.844 102.02C62.7102 99.5263 63.9052 97.4222 65.3966 95.7648C67.2596 93.6944 69.5934 92.3186 72.3339 91.6767L72.3181 91.6094C69.5641 92.2546 67.2179 93.6371 65.3447 95.7199C63.8467 97.3852 62.6471 99.4982 61.7787 102.001C60.2997 106.259 60.2941 110.225 60.2941 110.264L60.293 110.262Z" fill="#090034"/>
<path d="M80.5945 81.0151L79.8421 89.0914C79.8128 89.4078 79.5695 89.6569 79.2654 89.6839L73.468 90.2079C73.4094 90.2135 73.3497 90.2102 73.2911 90.1978L72.1411 89.9655C72.0195 89.9408 71.908 89.8802 71.819 89.7905L69.5482 87.4934C69.4119 87.3554 69.1078 87.0243 69.1247 86.8268L69.7014 79.2298C69.7014 78.1962 70.3468 78.0425 70.7467 78.3444L72.9059 81.6009C72.969 81.6491 72.9453 81.6121 73.0208 81.6323L74.1832 81.951C74.2959 81.9824 74.4153 81.9802 74.5268 81.9454L79.7813 80.3194C80.2138 80.1858 80.6385 80.5483 80.5956 81.014L80.5945 81.0151Z" fill="#4763A2"/>
<path d="M74.3554 82.0008L72.9046 81.6035L71.9551 89.93C71.9551 89.93 72.311 90.5045 73.3799 90.2173L74.3554 81.9996V82.0008Z" fill="#090034"/>
<path d="M79.3958 80.4424C79.3958 80.4424 78.9452 80.117 77.9067 80.3324C76.8682 80.5479 75.3251 81.0248 74.7011 81.1022C74.0782 81.1796 73.8405 81.4714 73.8405 81.4714C73.8405 81.4714 74.0252 80.9743 73.2875 80.7072C72.5497 80.4401 71.3524 78.2463 70.8984 78.5841L72.9045 81.605L74.3553 82.0022L79.3958 80.4424Z" fill="#E4ECFF"/>
<path d="M73.9006 81.479C73.9006 81.479 73.9682 81.1783 74.7826 81.0066C74.982 80.9651 75.2534 80.8888 75.5677 80.8001C76.6253 80.5039 78.2225 80.0561 78.9873 80.395L79.0369 80.2851C78.2327 79.9282 76.6096 80.3827 75.535 80.6834C75.223 80.771 74.9538 80.8461 74.7578 80.8877C73.8612 81.0773 73.7869 81.4218 73.7812 81.46L73.9006 81.4779V81.479Z" fill="#E4ECFF"/>
<path d="M81.442 84.4104C81.442 84.4104 80.7369 82.2828 79.5283 81.7621C78.3197 81.2414 76.3812 81.486 77.0616 81.9674C77.7419 82.4488 78.7815 82.8248 78.7815 82.8248C78.7815 82.8248 76.522 82.1256 76.5874 82.7226C76.6516 83.3196 78.6227 83.9088 78.6227 83.9088C78.6227 83.9088 75.8676 83.2905 76.112 83.8347C76.3565 84.379 78.4526 84.8346 78.4526 84.8346C78.4526 84.8346 75.8665 84.361 76.165 84.9872C76.4635 85.6133 78.3051 85.3642 78.3693 85.9612C78.4335 86.5582 78.8942 88.9091 80.5815 88.9316L81.442 84.4104Z" fill="#FFAD97"/>
<path d="M79.5865 83.3174L79.6744 83.2759C79.4885 82.8865 78.8172 82.7799 78.7891 82.7754L78.7744 82.8708C78.7812 82.8708 79.4232 82.974 79.5876 83.3174H79.5865Z" fill="#F47C53"/>
<path d="M79.5974 84.5004L79.6751 84.4421C79.3079 83.9539 78.6558 83.8608 78.6288 83.8574L78.6152 83.9539C78.622 83.9539 79.255 84.0448 79.5974 84.5004Z" fill="#F47C53"/>
<path d="M79.3589 85.381L79.4502 85.3474C79.2869 84.9153 78.4928 84.7908 78.459 84.7852L78.4443 84.8805C78.4522 84.8817 79.2159 85.0017 79.3589 85.381Z" fill="#F47C53"/>
<path d="M68.1701 84.633C68.1701 84.633 68.0766 85.8662 69.2075 85.9448C70.6481 86.0435 72.5381 84.7901 71.6269 84.7149C70.8182 84.6487 69.6467 84.8282 69.6467 84.8282C69.6467 84.8282 72.6192 84.33 72.3038 83.7509C71.9896 83.1719 69.4395 83.6342 69.4395 83.6342C69.4395 83.6342 72.2869 82.8779 71.8116 82.4257C71.3363 81.9746 69.0182 82.3797 69.0182 82.3797C69.0182 82.3797 71.8409 81.7894 71.2766 81.2777C70.7123 80.766 69.3145 81.3663 68.6645 81.4853C68.0495 81.5986 67.9234 82.0295 68.0755 82.612C68.0755 82.612 67.8874 83.2796 68.0833 83.6354C68.1588 83.7723 68.0462 83.9417 68.0529 84.0506C68.0664 84.2604 68.1701 84.6319 68.1701 84.6319V84.633Z" fill="#FFAD97"/>
<path d="M72.0397 29.8019L65.723 34.6351C65.6904 34.6598 65.6442 34.6542 65.6194 34.6216C62.3541 30.4438 55.8831 30.7905 55.1566 30.8433C51.0216 31.2046 47.1424 29.2981 43.2981 25.0159C41.1761 22.6526 40.186 19.451 40.5092 16.0004C40.9406 11.3984 43.6191 6.79862 47.6741 3.69582C51.0881 1.0823 55.5497 0.0285827 60.2342 0.728815C64.6676 1.39089 68.5829 3.5275 70.9775 6.59102C73.8363 10.247 74.0176 14.7447 71.4912 19.2524C69.9334 22.2789 70.1677 24.9564 70.6396 26.67C71.151 28.5283 72.0431 29.6863 72.0521 29.6976C72.0645 29.7133 72.069 29.7323 72.0667 29.7525C72.0656 29.7649 72.0611 29.7761 72.0532 29.7862C72.0487 29.7918 72.0442 29.7974 72.0375 29.8019H72.0397ZM40.6568 16.0139C40.3369 19.423 41.3146 22.5853 43.4085 24.9171C47.2201 29.1634 51.0588 31.0531 55.1453 30.6963C55.8774 30.6424 62.3642 30.2957 65.6904 34.4735L71.891 29.729C71.7018 29.4675 70.9528 28.3622 70.4988 26.7148C70.019 24.9755 69.7791 22.2565 71.3616 19.1829C73.8588 14.7278 73.6808 10.2874 70.8615 6.68079C68.5243 3.69134 64.5437 1.52106 60.2128 0.873574C55.5677 0.180075 51.1467 1.22257 47.7642 3.81141C46.2177 4.99529 44.8728 6.398 43.7791 7.93537C42.0276 10.3974 40.9204 13.2051 40.6568 16.0127V16.0139Z" fill="#001161"/>
<g opacity="0.4">
<path d="M58.3943 6.4778C56.2148 5.82357 53.979 6.70111 53.9576 6.71009C53.9452 6.71458 53.9317 6.71682 53.9193 6.71457C53.4484 6.64388 53.1545 6.4576 53.0452 6.1591C52.8357 5.59241 53.2953 4.67448 54.4498 3.35368C54.8801 2.86218 55.7237 2.53563 56.7082 2.47952C57.9855 2.4077 59.2031 2.77801 59.9634 3.47263C60.7248 4.16726 60.9681 5.15925 60.5547 5.88417C60.5311 5.92681 60.5051 5.96609 60.4781 6.00537C60.0737 6.5743 59.3078 6.75161 58.3955 6.4778H58.3943ZM53.1826 6.1086C53.2705 6.34763 53.5194 6.50136 53.9215 6.56645C54.149 6.48004 56.3162 5.70014 58.4371 6.33753C59.3405 6.60909 60.0839 6.41271 60.4263 5.81235C60.8059 5.14691 60.575 4.2301 59.8642 3.58148C59.1321 2.9138 57.955 2.55695 56.7172 2.62652C55.7721 2.68038 54.9657 2.98786 54.5613 3.45019C54.2617 3.79245 54.0105 4.10778 53.8055 4.39506C53.257 5.16598 53.0475 5.74053 53.1837 6.1086H53.1826Z" fill="#001161"/>
</g>
<path d="M48.7611 3.15759C56.0003 -2.38143 67.1344 -0.135971 71.962 6.03931C74.9965 9.92089 74.8174 14.432 72.4689 18.6222C69.43 24.5281 73.0366 29.147 73.0366 29.147L66.7199 33.9802C63.4411 29.7855 57.0039 30.1143 56.1929 30.1738C52.3553 30.5093 48.4705 28.9091 44.3953 24.3699C39.1554 18.5324 41.5219 8.69661 48.7611 3.15759Z" fill="#FFBB01"/>
<path d="M65.2636 32.5351C65.2636 32.5351 63.4997 34.3518 65.7051 36.1911C65.7051 36.1911 65.4652 38.7631 67.7686 38.983C67.7686 38.983 67.852 41.417 70.1362 42.0925C72.4205 42.7692 80.028 35.8454 80.0224 34.528C80.0168 33.2106 78.9411 32.4902 78.0749 32.7853C78.0749 32.7853 78.4556 31.2939 77.47 30.5544C76.4845 29.8149 75.8368 30.0169 75.8368 30.0169C75.8368 30.0169 76.2468 29.0417 75.3446 27.749C74.4423 26.4563 71.7796 25.9434 65.2636 32.5351Z" fill="#273547"/>
<g opacity="0.4">
<path d="M54.9726 6.04654C54.9726 6.04654 57.2265 5.14207 59.459 5.81201C61.6903 6.48194 62.4292 4.27464 60.9559 2.9314C59.4837 1.58817 56.5169 1.69702 55.5471 2.80684C54.5773 3.91667 53.1907 5.77834 54.9726 6.04654Z" fill="white"/>
</g>
<path d="M67.8552 39.1311C67.8789 39.1176 67.8992 39.0985 67.9149 39.075C67.9206 39.0671 68.4601 38.239 69.484 37.2503C70.4268 36.3403 71.9845 35.1036 74.057 34.3765C74.1483 34.3439 74.1956 34.2452 74.164 34.1554C74.1325 34.0645 74.0323 34.0174 73.9421 34.0488C71.8066 34.7973 70.2037 36.0709 69.235 37.0079C68.1841 38.0235 67.6457 38.8517 67.6232 38.8864C67.5714 38.9672 67.5951 39.075 67.675 39.1266C67.7313 39.1625 67.8012 39.1625 67.8564 39.1311H67.8552Z" fill="#090034"/>
<path d="M65.7929 36.3425C65.8109 36.3324 65.8278 36.3178 65.8425 36.2998C65.8504 36.2897 66.6715 35.2719 67.8959 34.1408C69.02 33.1028 70.7253 31.7551 72.4622 31.2265C72.5545 31.1985 72.6063 31.102 72.5782 31.0099C72.55 30.9179 72.4532 30.8663 72.3608 30.8944C70.5586 31.4431 68.8071 32.8256 67.6559 33.8894C66.4124 35.0374 65.5789 36.072 65.571 36.0821C65.5113 36.1573 65.5237 36.2662 65.5981 36.3256C65.6555 36.3717 65.7332 36.375 65.7941 36.3402L65.7929 36.3425Z" fill="#090034"/>
<g opacity="0.4">
<path d="M69.546 28.8074C69.368 28.6077 66.6084 25.4925 64.5392 22.4189C64.4446 22.4963 64.3478 22.5726 64.2475 22.6478C63.9693 22.8554 63.6697 23.0473 63.3543 23.2235C63.8769 24.009 64.3827 24.8461 64.8231 25.5935C66.2693 28.0511 67.5005 30.4929 67.5129 30.5176L66.908 30.8194C66.8956 30.7948 65.6724 28.3709 64.2374 25.9313C63.664 24.9561 63.1684 24.1684 62.7427 23.5321C62.282 23.7431 61.7999 23.917 61.3178 24.0438C59.8625 24.4242 58.6269 24.3344 58.0142 23.8037C57.3902 23.2628 57.2482 22.4346 57.6447 21.6424C58.0998 20.7345 59.2307 19.9591 60.5158 20.2318C61.1939 20.3754 62.0883 21.4011 62.9713 22.6613C63.387 22.4335 63.7936 22.163 64.1642 21.8511C63.2067 20.3676 62.46 18.9368 62.2978 17.8977C62.1097 16.6936 62.6289 16.2077 62.9544 16.0248C63.6077 15.659 64.5787 15.8587 65.3705 16.523C66.4158 17.4006 66.7604 18.709 66.2919 20.022C66.0441 20.7155 65.6183 21.373 65.0416 21.9577C67.1231 25.0549 70.0078 28.3103 70.0506 28.3597L69.5437 28.8063L69.546 28.8074ZM62.9679 17.7945C63.111 18.7169 63.7846 20.0119 64.6631 21.3798C65.0923 20.9231 65.4426 20.3956 65.6555 19.7964C66.204 18.259 65.2432 17.2973 64.9357 17.0392C64.377 16.5702 63.6832 16.3906 63.2867 16.6128C63.2079 16.6566 63.1459 16.7149 63.0975 16.7834C62.8959 17.0662 62.924 17.5173 62.9668 17.7945H62.9679ZM58.2507 21.9431C58.1279 22.1889 57.9015 22.8128 58.458 23.2942C58.8826 23.6623 59.9628 23.7015 61.1466 23.3918C61.5296 23.2919 61.9407 23.1494 62.3552 22.9665C61.15 21.2597 60.5936 20.9376 60.3762 20.8916C59.5505 20.7166 58.788 21.1542 58.3915 21.7108C58.3374 21.7871 58.2901 21.8646 58.2507 21.9442V21.9431Z" fill="white"/>
</g>
</svg>
