<svg width="111" height="110" viewBox="0 0 111 110" fill="none" xmlns="http://www.w3.org/2000/svg">
<path d="M55.9697 110C48.3835 110 41.2451 108.551 34.5545 105.654C27.8639 102.756 22.0425 98.8314 17.0904 93.8793C12.1383 88.9272 8.2135 83.1058 5.31599 76.4152C2.41848 69.7246 0.969727 62.5862 0.969727 55C0.969727 47.4138 2.41848 40.2754 5.31599 33.5848C8.2135 26.8942 12.1383 21.0728 17.0904 16.1207C22.0425 11.1686 27.8639 7.24377 34.5545 4.34626C41.2451 1.44875 48.3835 0 55.9697 0C63.5559 0 70.6943 1.44875 77.385 4.34626C84.0756 7.24377 89.8969 11.1686 94.849 16.1207C99.8011 21.0728 103.726 26.8942 106.623 33.5848C109.521 40.2754 110.97 47.4138 110.97 55C110.97 62.5862 109.521 69.7246 106.623 76.4152C103.726 83.1058 99.8011 88.9272 94.849 93.8793C89.8969 98.8314 84.0756 102.756 77.385 105.654C70.6943 108.551 63.5559 110 55.9697 110ZM55.9697 105.733C59.9736 100.675 63.2398 95.7759 65.7686 91.0345C68.2973 86.2931 70.3519 80.9195 71.9324 74.9138H40.0071C41.7983 81.341 43.9056 86.9253 46.3289 91.6667C48.7523 96.408 51.9659 101.097 55.9697 105.733ZM50.4381 105.259C47.1718 101.782 44.169 97.2773 41.4295 91.7457C38.69 86.2141 36.6881 80.6035 35.4237 74.9138H9.50421C13.2973 83.5536 18.8289 90.5603 26.099 95.9339C33.3692 101.307 41.4822 104.416 50.4381 105.259ZM61.5013 105.259C70.4573 104.416 78.5703 101.307 85.8404 95.9339C93.1105 90.5603 98.6421 83.5536 102.435 74.9138H76.5157C74.7245 80.7088 72.4592 86.3721 69.7197 91.9037C66.9803 97.4353 64.2408 101.887 61.5013 105.259ZM7.7657 70.4885H34.4755C33.9487 67.749 33.5799 65.0886 33.3692 62.5072C33.1584 59.9258 33.0531 57.4234 33.0531 55C33.0531 52.5766 33.1584 50.0742 33.3692 47.4928C33.5799 44.9114 33.9487 42.251 34.4755 39.5115H7.7657C7.02816 41.7241 6.44865 44.2002 6.0272 46.9397C5.60574 49.6791 5.39501 52.3659 5.39501 55C5.39501 57.6341 5.60574 60.3209 6.0272 63.0603C6.44865 65.7998 7.02816 68.2759 7.7657 70.4885ZM38.9008 70.4885H73.0387C73.5655 67.749 73.9343 65.1413 74.145 62.6652C74.3557 60.1892 74.4611 57.6341 74.4611 55C74.4611 52.3659 74.3557 49.8108 74.145 47.3348C73.9343 44.8587 73.5655 42.251 73.0387 39.5115H38.9008C38.3739 42.251 38.0052 44.8587 37.7944 47.3348C37.5837 49.8108 37.4783 52.3659 37.4783 55C37.4783 57.6341 37.5837 60.1892 37.7944 62.6652C38.0052 65.1413 38.3739 67.749 38.9008 70.4885ZM77.464 70.4885H104.174C104.911 68.2759 105.491 65.7998 105.912 63.0603C106.334 60.3209 106.544 57.6341 106.544 55C106.544 52.3659 106.334 49.6791 105.912 46.9397C105.491 44.2002 104.911 41.7241 104.174 39.5115H77.464C77.9908 42.251 78.3596 44.9114 78.5703 47.4928C78.781 50.0742 78.8864 52.5766 78.8864 55C78.8864 57.4234 78.781 59.9258 78.5703 62.5072C78.3596 65.0886 77.9908 67.749 77.464 70.4885ZM76.5157 35.0862H102.435C98.5368 26.2356 93.0842 19.2289 86.0775 14.0661C79.0708 8.90326 70.8787 5.74234 61.5013 4.58333C64.7676 8.58716 67.7178 13.2759 70.3519 18.6494C72.986 24.023 75.0406 29.5019 76.5157 35.0862ZM40.0071 35.0862H71.9324C70.1412 28.7644 67.9549 23.1011 65.3735 18.0963C62.792 13.0915 59.6575 8.4818 55.9697 4.26724C52.282 8.4818 49.1474 13.0915 46.566 18.0963C43.9846 23.1011 41.7983 28.7644 40.0071 35.0862ZM9.50421 35.0862H35.4237C36.8988 29.5019 38.9534 24.023 41.5875 18.6494C44.2216 13.2759 47.1718 8.58716 50.4381 4.58333C40.9554 5.74234 32.737 8.9296 25.7829 14.1451C18.8289 19.3606 13.4027 26.341 9.50421 35.0862Z" fill="#FFEBAE"/>
</svg>
