<svg width="109" height="110" viewBox="0 0 109 110" fill="none" xmlns="http://www.w3.org/2000/svg">
<path d="M54.8398 110C47.3728 110 40.3523 108.557 33.7783 105.67C27.2053 102.784 21.4873 98.8666 16.6243 93.9186C11.7613 88.9706 7.91181 83.1519 5.07581 76.4622C2.23881 69.7736 0.820312 62.6262 0.820312 55.0199C0.820312 47.4146 2.23731 40.2641 5.07131 33.5683C7.90531 26.8736 11.7513 21.0497 16.6093 16.0967C21.4673 11.1436 27.1803 7.22282 33.7483 4.3343C40.3153 1.44477 47.3328 0 54.8008 0C62.2678 0 69.2883 1.44324 75.8623 4.32973C82.4353 7.21621 88.1533 11.1334 93.0163 16.0814C97.8793 21.0294 101.729 26.8482 104.565 33.5378C107.402 40.2264 108.82 47.3738 108.82 54.9801C108.82 62.5854 107.403 69.7359 104.569 76.4317C101.735 83.1264 97.8893 88.9503 93.0313 93.9033C88.1733 98.8564 82.4603 102.777 75.8923 105.666C69.3253 108.555 62.3078 110 54.8398 110ZM54.8203 103.889L50.6203 99.6111C50.0203 99 49.5703 98.338 49.2703 97.625C48.9703 96.912 48.8203 96.1482 48.8203 95.3333V61.1111C45.5203 61.1111 42.6953 59.9144 40.3453 57.5208C37.9953 55.1273 36.8203 52.25 36.8203 48.8889V42.7778L18.0703 23.6806C14.5703 27.9583 11.8203 32.7454 9.82031 38.0417C7.82031 43.338 6.82031 48.9907 6.82031 55C6.82031 68.6481 11.4703 80.2083 20.7703 89.6806C30.0703 99.1528 41.4203 103.889 54.8203 103.889ZM60.8203 103.583C72.7203 102.056 82.6953 96.7083 90.7453 87.5417C98.7953 78.375 102.82 67.5278 102.82 55C102.82 41.4537 98.1453 29.919 88.7953 20.3958C79.4453 10.8727 68.1203 6.11111 54.8203 6.11111C50.4203 6.11111 46.1953 6.69676 42.1453 7.86806C38.0953 9.03935 34.3203 10.6435 30.8203 12.6806V24.4444H52.1203C53.9203 24.4444 55.6453 24.8519 57.2953 25.6667C58.9453 26.4815 60.3203 27.6019 61.4203 29.0278L69.8203 39.7222H78.8203C80.5203 39.7222 81.9453 40.3079 83.0953 41.4792C84.2453 42.6505 84.8203 44.1019 84.8203 45.8333V52.25C84.8203 53.1667 84.6953 54.0324 84.4453 54.8472C84.1953 55.662 83.8203 56.4769 83.3203 57.2917L60.8203 91.6667V103.583Z" fill="#DDD5FF"/>
</svg>
