<svg width="100" height="100" viewBox="0 0 100 100" fill="none" xmlns="http://www.w3.org/2000/svg">
<path d="M26.6234 86.3636H31.1688V73.3766H44.1558V68.8312H31.1688V55.8442H26.6234V68.8312H13.6364V73.3766H26.6234V86.3636ZM59.0909 81.4935H86.3636V76.9481H59.0909V81.4935ZM59.0909 65.2597H86.3636V60.7143H59.0909V65.2597ZM63.6364 39.2857L72.7273 30.1948L81.8182 39.2857L85.0649 36.039L75.974 26.9481L85.0649 17.8571L81.8182 14.6104L72.7273 23.7013L63.6364 14.6104L60.3896 17.8571L69.4805 26.9481L60.3896 36.039L63.6364 39.2857ZM15.2597 29.2208H42.5325V24.6753H15.2597V29.2208ZM9.74026 100C6.92641 100 4.59957 99.0801 2.75974 97.2403C0.919913 95.4004 0 93.0736 0 90.2597V9.74026C0 6.92641 0.919913 4.59957 2.75974 2.75974C4.59957 0.919913 6.92641 0 9.74026 0H90.2597C93.0736 0 95.4004 0.919913 97.2403 2.75974C99.0801 4.59957 100 6.92641 100 9.74026V90.2597C100 93.0736 99.0801 95.4004 97.2403 97.2403C95.4004 99.0801 93.0736 100 90.2597 100H9.74026ZM9.74026 95.4545H90.2597C91.5584 95.4545 92.7489 94.9134 93.8312 93.8312C94.9134 92.7489 95.4545 91.5584 95.4545 90.2597V9.74026C95.4545 8.44156 94.9134 7.25108 93.8312 6.16883C92.7489 5.08658 91.5584 4.54545 90.2597 4.54545H9.74026C8.44156 4.54545 7.25108 5.08658 6.16883 6.16883C5.08658 7.25108 4.54545 8.44156 4.54545 9.74026V90.2597C4.54545 91.5584 5.08658 92.7489 6.16883 93.8312C7.25108 94.9134 8.44156 95.4545 9.74026 95.4545Z" fill="#DDEBFD"/>
</svg>
