<svg width="65" height="110" viewBox="0 0 65 110" fill="none" xmlns="http://www.w3.org/2000/svg">
<path d="M0.289458 110V108.046C0.289458 95.0169 2.90361 85.0127 8.13191 78.033C13.3602 71.0533 20.4091 63.3756 29.2785 55C20.3157 46.6244 13.2202 38.9467 7.99187 31.967C2.76356 24.9873 0.149414 14.9831 0.149414 1.95431V0H4.07064V1.95431C4.07064 4.09475 4.14066 6.14213 4.2807 8.09645C4.42075 10.0508 4.6775 11.912 5.05095 13.6802H59.2479C59.6213 11.912 59.8781 10.0508 60.0181 8.09645C60.1582 6.14213 60.2282 4.09475 60.2282 1.95431V0H64.1494V1.95431C64.1494 14.9831 61.5353 24.9873 56.307 31.967C51.0787 38.9467 44.0298 46.6244 35.1604 55C44.0298 63.2826 51.0787 70.937 56.307 77.9632C61.5353 84.9894 64.1494 95.0169 64.1494 108.046V110H60.2282V108.046C60.2282 105.905 60.1582 103.858 60.0181 101.904C59.8781 99.9492 59.6213 98.088 59.2479 96.3198H5.19099C4.81754 98.088 4.56079 99.9492 4.42075 101.904C4.2807 103.858 4.21068 105.905 4.21068 108.046V110H0.289458ZM14.4339 34.3401H49.865C51.7322 31.9205 53.4127 29.338 54.9065 26.5926C56.4003 23.8473 57.5674 20.846 58.4076 17.5888H5.89121C6.82483 20.846 7.99186 23.824 9.3923 26.5228C10.7927 29.2217 12.4733 31.8274 14.4339 34.3401ZM32.2194 52.3477C34.9269 49.835 37.4711 47.4154 39.8518 45.0888C42.2326 42.7623 44.4499 40.4822 46.5039 38.2487H17.7949C19.8489 40.4822 22.0896 42.7623 24.517 45.0888C26.9445 47.4154 29.5119 49.835 32.2194 52.3477ZM17.935 71.7513H46.5039C44.4499 69.5178 42.2326 67.2377 39.8518 64.9112C37.4711 62.5846 34.9269 60.165 32.2194 57.6523C29.5119 60.165 26.9678 62.5846 24.5871 64.9112C22.2063 67.2377 19.9889 69.5178 17.935 71.7513ZM6.03125 92.4112H58.4076C57.474 89.154 56.307 86.176 54.9065 83.4772C53.5061 80.7783 51.8256 78.1726 49.865 75.6599H14.5739C12.6133 78.1726 10.9094 80.7783 9.46232 83.4772C8.01521 86.176 6.87151 89.154 6.03125 92.4112Z" fill="#C7EBBC"/>
</svg>
